<?xml version="1.0" standalone="no"?>
<!DOCTYPE svg PUBLIC "-//W3C//DTD SVG 20010904//EN"
 "http://www.w3.org/TR/2001/REC-SVG-20010904/DTD/svg10.dtd">
<svg version="1.0" xmlns="http://www.w3.org/2000/svg"
 width="222.000000pt" height="222.000000pt" viewBox="0 0 222.000000 222.000000"
 preserveAspectRatio="xMidYMid meet">
<metadata>
Created by potrace 1.11, written by Peter Selinger 2001-2013
</metadata>
<g transform="translate(0.000000,222.000000) scale(0.100000,-0.100000)"
fill="#000000" stroke="none">
<path d="M957 2180 c-16 -5 -55 -37 -88 -71 l-60 -63 63 -63 c47 -47 67 -61
81 -57 59 19 268 -1 327 -31 66 -32 97 -50 114 -67 11 -10 26 -18 33 -18 8 0
11 -4 8 -10 -3 -5 0 -10 7 -10 7 0 58 45 113 101 l100 100 -32 27 c-81 69
-213 132 -327 156 -72 15 -294 19 -339 6z"/>
<path d="M750 2120 c-13 -8 -12 -10 3 -10 9 0 17 5 17 10 0 12 -1 12 -20 0z"/>
<path d="M630 2046 c-58 -42 -138 -120 -177 -171 -45 -59 -96 -145 -90 -151 9
-9 344 331 339 344 -6 19 -24 14 -72 -22z"/>
<path d="M585 1825 c-96 -96 -175 -177 -175 -180 0 -3 26 -31 57 -62 l57 -57
9 29 c5 17 14 35 19 42 5 7 7 17 3 23 -3 5 -2 10 2 10 13 0 43 56 35 65 -4 5
-1 5 6 1 6 -4 12 -2 12 4 0 23 138 146 196 174 l60 29 -47 49 c-25 26 -49 48
-53 48 -3 0 -85 -79 -181 -175z"/>
<path d="M1615 1830 l-100 -100 18 -28 c72 -110 101 -222 94 -362 l-5 -105 30
-32 31 -32 128 128 127 129 -4 43 c-7 61 -51 204 -81 264 -27 54 -102 164
-125 183 -11 9 -33 -8 -113 -88z"/>
<path d="M327 1566 c-42 -43 -53 -100 -43 -229 8 -118 21 -178 57 -269 23 -58
129 -248 139 -248 4 0 44 39 90 86 76 77 83 87 67 99 -9 6 -14 14 -12 17 3 3
-1 11 -10 18 -8 7 -15 18 -15 25 0 7 -7 18 -15 25 -8 7 -13 16 -10 20 2 3 -3
18 -13 31 -9 13 -17 30 -19 37 -1 8 -5 21 -9 30 -4 9 -8 24 -9 32 -2 8 -6 26
-10 40 -4 14 -8 60 -9 103 l-2 78 -71 71 -71 71 -35 -37z"/>
<path d="M1827 1228 l-99 -101 58 -58 c32 -33 61 -59 65 -59 10 0 48 93 64
157 18 76 28 163 18 162 -4 0 -52 -46 -106 -101z"/>
<path d="M1562 1127 c-13 -28 -22 -54 -22 -56 1 -2 -2 -7 -7 -10 -4 -3 -21
-26 -37 -51 -35 -54 -21 -44 76 52 l67 68 -25 25 c-14 14 -26 25 -27 25 -1 0
-12 -24 -25 -53z"/>
<path d="M1503 904 c-95 -95 -173 -176 -173 -179 0 -8 179 -185 187 -185 7 0
69 66 133 142 42 50 153 218 167 253 5 13 -119 146 -134 144 -5 0 -86 -79
-180 -175z"/>
<path d="M614 829 l-88 -88 20 -23 c10 -13 21 -25 24 -28 3 -3 18 -21 34 -40
29 -36 203 -216 249 -259 l26 -23 90 90 90 90 -35 39 c-20 21 -40 37 -46 35
-5 -1 -7 2 -3 7 3 6 -7 17 -22 25 -15 8 -25 15 -21 16 4 0 -34 42 -85 93 -51
50 -104 106 -118 124 l-26 31 -89 -89z"/>
<path d="M1103 504 c-95 -95 -173 -177 -173 -181 0 -4 39 -46 86 -93 l86 -86
57 56 c31 30 99 93 151 140 52 47 110 100 129 118 l34 34 -94 94 c-51 52 -96
94 -99 93 -3 0 -83 -79 -177 -175z"/>
</g>
</svg>
